<svg xmlns="http://www.w3.org/2000/svg" width="221" height="221" viewBox="0 0 221 221" version="1.1"><path d="M 84.343 14.968 C 62.128 16.394, 46.500 23.232, 31.134 38.251 C 12.353 56.605, 2.044 87.438, 4.993 116.432 C 8.880 154.642, 31.319 186.783, 65.500 203.102 C 96.266 217.790, 129.947 217.235, 161.516 201.519 C 183.721 190.465, 197.708 175.713, 209.415 151 C 223.016 122.291, 220.059 87.349, 201.693 59.747 C 195.895 51.034, 192.432 47.234, 191.311 48.356 C 190.939 48.728, 191.616 50.263, 192.817 51.766 C 205.983 68.256, 213.218 85.551, 214.964 104.701 C 215.900 114.969, 214.621 128.879, 212.022 136.698 L 210.094 142.500 210.797 136.500 C 212.220 124.353, 211.432 104.046, 209.178 94.793 C 204.099 73.936, 195.742 58.683, 181.553 44.367 C 167.867 30.561, 153.390 22.165, 134.127 16.864 C 125.331 14.444, 104.739 13.660, 84.343 14.968 M 75.500 17.117 C 18.746 25.372, -11.263 95.014, 17.099 152.647 C 30.587 180.055, 56.309 200.729, 86.794 208.664 C 94.908 210.776, 98.878 211.203, 111 211.263 C 127.275 211.344, 137.469 209.544, 151.615 204.088 C 163.555 199.484, 164.759 197.811, 153.412 201.593 C 140.292 205.965, 132.147 207.217, 116.500 207.268 C 96.909 207.331, 81.595 203.840, 65 195.526 C 53.222 189.625, 44.865 183.644, 37.397 175.769 C 25.342 163.058, 18.819 151.292, 14.248 134.011 C 10.741 120.755, 10.536 100.603, 13.777 87.699 C 18.174 70.188, 26.767 55.434, 40.167 42.385 C 50.344 32.475, 61.395 25.126, 72.291 21.021 C 86.459 15.685, 86.610 15.501, 75.500 17.117 M 103.500 17.536 C 105.150 18.292, 107.063 18.930, 107.750 18.955 C 108.438 18.980, 109 19.387, 109 19.860 C 109 20.334, 105.865 19.798, 102.034 18.669 C 95.167 16.647, 94.959 16.644, 87.284 18.450 C 51.971 26.760, 22.891 56.099, 15.400 90.976 C 13.533 99.664, 13.541 119.709, 15.414 128.515 C 25.329 175.122, 65.395 205.027, 117.881 204.992 C 137.653 204.980, 151.723 201.521, 168 192.672 C 180.954 185.630, 196.491 170.604, 200.921 160.834 C 207.616 146.068, 210.894 125.478, 209.123 109.310 C 205.083 72.433, 185.195 42.733, 154 26.994 C 140.023 19.942, 123.355 15.934, 108.619 16.081 C 100.916 16.158, 100.654 16.233, 103.500 17.536 M 97.321 48.065 C 88.515 49.129, 80.378 51.907, 73.904 56.062 C 68.110 59.780, 64.861 63.442, 61.195 70.393 C 58.740 75.044, 58.500 76.483, 58.500 86.521 C 58.500 96.963, 58.673 97.893, 61.792 104.229 C 67.641 116.111, 77.070 121.971, 98.500 127.046 C 118.411 131.761, 123.468 133.630, 126.905 137.545 C 134.335 146.007, 131.035 159.530, 120.564 163.529 C 117.103 164.850, 113.853 165.146, 106.184 164.838 C 97.164 164.476, 95.596 164.105, 88.700 160.696 C 83.182 157.969, 79.656 155.330, 75.717 150.976 C 72.742 147.689, 69.902 145.026, 69.404 145.057 C 68.907 145.089, 65.205 149.133, 61.179 154.046 C 55.888 160.500, 54.024 163.499, 54.456 164.862 C 55.642 168.598, 66.813 178.010, 74.205 181.501 C 86.069 187.104, 92.655 188.439, 108.500 188.452 C 123.152 188.464, 129.712 187.228, 138.319 182.837 C 151.954 175.881, 160.277 159.178, 158.568 142.199 C 156.601 122.656, 144.843 111.235, 121.268 105.971 C 115.895 104.771, 107.586 102.905, 102.802 101.824 C 88.067 98.493, 82.284 92.085, 84.980 82.073 C 87.176 73.917, 95.326 70.431, 110.356 71.217 C 120.859 71.766, 127.895 74.335, 134.298 79.957 C 136.337 81.747, 138.623 82.975, 139.377 82.686 C 141 82.063, 153 65.684, 153 64.092 C 153 62.304, 141.367 54.280, 135.725 52.178 C 125.138 48.233, 109.660 46.576, 97.321 48.065" stroke="none" fill="#7d4ce3" fill-rule="evenodd"/><path d="M 89.625 1.554 C 55.905 8.254, 26.901 30.319, 11.485 61 C 3.393 77.106, 0 91.727, 0 110.500 C -0 140.539, 10.394 166.155, 31.342 187.743 C 52.555 209.603, 79.681 221, 110.500 221 C 133.883 221, 153.931 214.856, 173.500 201.692 C 181.880 196.055, 195.069 182.989, 200.867 174.579 C 210.175 161.079, 217.912 142.684, 219.584 130.077 C 219.958 127.260, 220.654 124.714, 221.132 124.419 C 221.609 124.123, 222 117.357, 222 109.382 C 222 101.367, 221.609 95.123, 221.126 95.422 C 220.646 95.719, 219.949 93.676, 219.579 90.882 C 217.912 78.316, 210.162 59.902, 200.867 46.421 C 195.069 38.011, 181.880 24.945, 173.500 19.308 C 160.520 10.576, 145.440 4.299, 130.750 1.512 C 120.906 -0.355, 99.122 -0.333, 89.625 1.554 M 84.343 14.968 C 62.128 16.394, 46.500 23.232, 31.134 38.251 C 12.353 56.605, 2.044 87.438, 4.993 116.432 C 8.880 154.642, 31.319 186.783, 65.500 203.102 C 96.266 217.790, 129.947 217.235, 161.516 201.519 C 183.721 190.465, 197.708 175.713, 209.415 151 C 223.016 122.291, 220.059 87.349, 201.693 59.747 C 195.895 51.034, 192.432 47.234, 191.311 48.356 C 190.939 48.728, 191.616 50.263, 192.817 51.766 C 205.983 68.256, 213.218 85.551, 214.964 104.701 C 215.900 114.969, 214.621 128.879, 212.022 136.698 L 210.094 142.500 210.797 136.500 C 212.220 124.353, 211.432 104.046, 209.178 94.793 C 204.099 73.936, 195.742 58.683, 181.553 44.367 C 167.867 30.561, 153.390 22.165, 134.127 16.864 C 125.331 14.444, 104.739 13.660, 84.343 14.968 M 75.500 17.117 C 18.746 25.372, -11.263 95.014, 17.099 152.647 C 30.587 180.055, 56.309 200.729, 86.794 208.664 C 94.908 210.776, 98.878 211.203, 111 211.263 C 127.275 211.344, 137.469 209.544, 151.615 204.088 C 163.555 199.484, 164.759 197.811, 153.412 201.593 C 140.292 205.965, 132.147 207.217, 116.500 207.268 C 96.909 207.331, 81.595 203.840, 65 195.526 C 53.222 189.625, 44.865 183.644, 37.397 175.769 C 25.342 163.058, 18.819 151.292, 14.248 134.011 C 10.741 120.755, 10.536 100.603, 13.777 87.699 C 18.174 70.188, 26.767 55.434, 40.167 42.385 C 50.344 32.475, 61.395 25.126, 72.291 21.021 C 86.459 15.685, 86.610 15.501, 75.500 17.117 M 103.500 17.536 C 105.150 18.292, 107.063 18.930, 107.750 18.955 C 108.438 18.980, 109 19.387, 109 19.860 C 109 20.334, 105.865 19.798, 102.034 18.669 C 95.167 16.647, 94.959 16.644, 87.284 18.450 C 51.971 26.760, 22.891 56.099, 15.400 90.976 C 13.533 99.664, 13.541 119.709, 15.414 128.515 C 25.329 175.122, 65.395 205.027, 117.881 204.992 C 137.653 204.980, 151.723 201.521, 168 192.672 C 180.954 185.630, 196.491 170.604, 200.921 160.834 C 207.616 146.068, 210.894 125.478, 209.123 109.310 C 205.083 72.433, 185.195 42.733, 154 26.994 C 140.023 19.942, 123.355 15.934, 108.619 16.081 C 100.916 16.158, 100.654 16.233, 103.500 17.536 M 97.321 48.065 C 88.515 49.129, 80.378 51.907, 73.904 56.062 C 68.110 59.780, 64.861 63.442, 61.195 70.393 C 58.740 75.044, 58.500 76.483, 58.500 86.521 C 58.500 96.963, 58.673 97.893, 61.792 104.229 C 67.641 116.111, 77.070 121.971, 98.500 127.046 C 118.411 131.761, 123.468 133.630, 126.905 137.545 C 134.335 146.007, 131.035 159.530, 120.564 163.529 C 117.103 164.850, 113.853 165.146, 106.184 164.838 C 97.164 164.476, 95.596 164.105, 88.700 160.696 C 83.182 157.969, 79.656 155.330, 75.717 150.976 C 72.742 147.689, 69.902 145.026, 69.404 145.057 C 68.907 145.089, 65.205 149.133, 61.179 154.046 C 55.888 160.500, 54.024 163.499, 54.456 164.862 C 55.642 168.598, 66.813 178.010, 74.205 181.501 C 86.069 187.104, 92.655 188.439, 108.500 188.452 C 123.152 188.464, 129.712 187.228, 138.319 182.837 C 151.954 175.881, 160.277 159.178, 158.568 142.199 C 156.601 122.656, 144.843 111.235, 121.268 105.971 C 115.895 104.771, 107.586 102.905, 102.802 101.824 C 88.067 98.493, 82.284 92.085, 84.980 82.073 C 87.176 73.917, 95.326 70.431, 110.356 71.217 C 120.859 71.766, 127.895 74.335, 134.298 79.957 C 136.337 81.747, 138.623 82.975, 139.377 82.686 C 141 82.063, 153 65.684, 153 64.092 C 153 62.304, 141.367 54.280, 135.725 52.178 C 125.138 48.233, 109.660 46.576, 97.321 48.065 M 0.400 110.500 C 0.401 118.750, 0.556 121.992, 0.744 117.704 C 0.932 113.417, 0.931 106.667, 0.742 102.704 C 0.552 98.742, 0.399 102.250, 0.400 110.500" stroke="none" fill="#faf9fb" fill-rule="evenodd"/></svg>